<svg width="182" height="142" viewBox="0 0 182 142" fill="none" xmlns="http://www.w3.org/2000/svg">
<path d="M68.7241 21.3757C67.0178 21.5178 64.4584 22.0392 63.0366 22.5132C61.6147 22.9397 59.0553 24.0772 57.3491 25.0251C55.5006 26.0204 52.8465 28.1533 50.7137 30.2861C48.2017 32.8454 46.6376 34.9309 45.4053 37.4428C44.41 39.3861 43.2725 42.2772 42.8933 43.8413C42.372 45.7371 42.135 48.7231 42.135 52.8465C42.1824 56.259 42.4194 60.809 42.6564 63.0366C42.9407 65.2642 43.6043 69.1033 44.0782 71.5678C44.5996 74.0324 45.5001 77.7767 46.1637 79.8621C46.7798 81.9475 50.8558 94.934 55.2163 108.774C59.5767 122.613 63.5105 134.652 63.9845 135.552C64.4584 136.453 65.6433 137.922 66.6387 138.823C67.6814 139.723 69.198 140.718 70.0038 141.098C70.8569 141.429 72.8949 141.714 74.5064 141.714C76.4496 141.714 78.1558 141.382 79.3881 140.813C80.4308 140.292 82.0423 139.06 82.9428 138.064C83.8433 137.069 87.1137 131.666 90.147 126.073C93.3699 120.101 96.2611 115.362 97.1142 114.556C97.9199 113.845 99.4366 113.087 100.479 112.802C101.743 112.486 103.007 112.486 104.271 112.802C105.314 113.087 106.878 113.987 107.778 114.84C108.774 115.741 111.617 120.433 114.935 126.547C117.968 132.14 121.144 137.448 121.95 138.301C122.803 139.154 124.319 140.292 125.362 140.766C126.594 141.382 128.253 141.714 130.196 141.714C131.855 141.714 133.893 141.429 134.699 141.098C135.552 140.718 137.069 139.723 138.112 138.823C139.107 137.922 140.339 136.453 140.766 135.552C141.24 134.652 145.268 122.376 149.676 108.3C154.131 94.223 158.302 80.81 159.013 78.4402C159.677 76.0704 160.53 72.4684 160.909 70.3829C161.288 68.2975 161.857 64.885 162.094 62.7996C162.378 60.7142 162.568 56.259 162.568 52.8465C162.615 48.7704 162.331 45.6897 161.857 43.8413C161.478 42.2772 160.34 39.3861 159.392 37.4428C158.065 34.8361 156.596 32.8928 153.8 30.0965C151.003 27.3001 149.06 25.8309 146.453 24.5038C144.51 23.5559 141.619 22.4184 140.055 22.0392C138.301 21.5652 135.173 21.2809 131.998 21.2809C129.106 21.2809 125.599 21.5178 124.177 21.8022C122.755 22.134 118.821 23.2241 115.409 24.3142C109.437 26.1626 109.011 26.2574 102.612 26.2574C96.1189 26.3048 95.8345 26.2574 89.5782 24.3142C86.0709 23.2241 81.9001 22.0866 80.3361 21.8496C78.772 21.5652 76.2126 21.2809 74.6486 21.2335C73.0845 21.1387 70.4303 21.2335 68.7241 21.3757Z" fill="white"/>
<path d="M150.171 2.99044C150.417 1.82945 150.769 0.668452 150.945 0.457362V0.42218C151.156 0.21109 151.402 0 151.543 0C151.648 0 151.93 0.140727 152.176 0.281453C152.422 0.42218 152.95 1.93499 153.336 3.69408C153.758 5.41798 154.462 7.81033 154.919 8.97133C155.341 10.1323 156.22 12.1025 156.853 13.369C157.486 14.6356 158.612 16.5354 159.315 17.5908C160.054 18.6463 161.671 20.5461 162.902 21.8126C164.133 23.0792 166.349 24.8734 167.755 25.8585C169.197 26.8084 171.589 28.1102 173.031 28.7083C174.473 29.3063 177.005 30.1507 178.658 30.5729C180.311 30.9951 181.752 31.5228 181.893 31.7691C181.999 32.0153 182.034 32.4023 181.963 32.6134C181.893 32.8597 181.155 33.2467 180.346 33.4578C179.502 33.6689 177.814 34.1262 176.548 34.4781C175.281 34.865 173.066 35.7446 171.624 36.4482C170.182 37.1519 168.037 38.4184 166.876 39.2276C165.716 40.0719 163.887 41.6903 162.797 42.8161C161.707 43.9419 160.229 45.5955 158.26 48.1989L156.713 44.927C155.869 43.1679 154.567 40.7756 153.829 39.6849C153.09 38.5943 151.719 36.9408 150.84 35.9909C149.96 35.0761 148.483 33.6689 147.499 32.8597C146.549 32.0857 145.142 31.0654 144.369 30.6081C143.595 30.1155 142.188 29.3767 141.203 28.8842C140.254 28.4268 138.355 27.688 134.662 26.5622L136.878 24.9438C138.109 24.0291 139.973 22.3756 141.028 21.2146C142.083 20.0887 143.525 18.2945 144.228 17.239C144.931 16.1836 146.021 14.2838 146.654 13.0172C147.288 11.7507 148.237 9.46387 148.765 7.91588C149.292 6.36788 149.925 4.15144 150.171 2.99044Z" fill="#BBA53D"/>
<path d="M125.378 30.3266C127.136 29.9044 129.879 28.8489 131.532 28.0398L134.521 26.5621L136.807 27.2306C138.073 27.5824 139.972 28.286 141.027 28.8138C142.083 29.3415 143.595 30.1155 144.368 30.608C145.142 31.0654 146.549 32.0857 147.498 32.8597C148.483 33.6688 149.96 35.0761 150.839 35.9908C151.719 36.9407 153.09 38.5943 153.829 39.6849C154.567 40.7755 155.868 43.1679 158.26 48.1989L156.888 50.9079C156.15 52.4207 155.06 55.0945 154.462 56.8184C153.899 58.5423 153.266 60.7587 153.125 61.7438C152.95 62.6937 152.633 63.714 152.352 63.9251C152.105 64.1714 151.789 64.3825 151.648 64.3825C151.508 64.4176 151.226 64.2065 151.015 63.9603C150.804 63.714 150.277 62.0605 149.855 60.3366C149.398 58.6127 148.589 55.974 148.026 54.5316C147.463 53.0891 146.373 50.7671 145.564 49.4302C144.79 48.0933 143.349 46.0176 142.399 44.8566C141.45 43.6956 139.937 42.1124 139.023 41.3033C138.073 40.5293 136.631 39.4035 135.752 38.8054C134.873 38.2073 132.974 37.1518 131.532 36.4482C130.09 35.7446 127.769 34.865 126.433 34.478C125.096 34.091 123.373 33.5985 122.67 33.4226C121.685 33.1763 121.333 32.8948 121.333 32.3671C121.333 31.9801 121.544 31.5579 121.755 31.4172C122.001 31.2765 123.619 30.7839 125.378 30.3266Z" fill="#BBA53D"/>
<ellipse cx="62.5" cy="57.8568" rx="26.5" ry="27" fill="#0369A1"/>
<path fill-rule="evenodd" clip-rule="evenodd" d="M50.3557 25.3377C48.6721 25.9742 46.0431 27.2348 44.4429 28.1826C42.8773 29.1212 40.4912 30.8729 39.1727 32.0419C37.8542 33.2108 36.0267 35.1095 35.0981 36.2111C34.1787 37.3472 32.6194 39.6931 31.65 41.473C30.6714 43.2183 29.424 46.0367 28.8699 47.7053C28.3503 49.3647 27.735 52.0508 27.4923 53.636C27.2841 55.212 27.1069 57.5953 27.1292 58.9241C27.1515 60.2529 27.3759 62.7512 27.6317 64.5364C27.9574 66.8592 28.4394 68.6581 29.3929 71.1092C30.1103 72.9562 31.3616 75.55 32.1568 76.8571C32.9175 78.1735 34.3596 80.2341 35.3001 81.3911C36.2751 82.5388 37.6381 84.0274 38.3611 84.6494C39.084 85.2714 39.6938 85.8866 39.7402 86.0595C39.7773 86.1979 39.2632 86.6323 38.5922 87.0345C37.6723 87.6147 35.7515 90.6877 29.8562 100.795C25.6927 107.954 22.0408 114.531 21.7165 115.397C21.3026 116.62 21.2575 117.559 21.5708 119.144C21.9095 120.684 22.2635 121.591 22.9451 122.335C23.4672 122.899 24.3057 123.676 24.8321 123.98C25.3332 124.328 26.4874 124.76 27.3505 124.936C28.5714 125.202 29.4043 125.128 31.0027 124.588C32.5319 124.067 33.3227 123.559 34.1753 122.589C34.7629 121.875 38.6342 115.424 42.7538 108.24C48.5613 98.0819 50.2627 94.8823 50.3053 93.7956C50.3183 93.0135 50.4375 92.3513 50.5759 92.3142C50.7489 92.2678 51.5867 92.4883 52.4869 92.8032C53.3872 93.1182 55.3582 93.554 56.8398 93.8244C58.3122 94.0602 60.8182 94.2786 62.3388 94.279C63.8686 94.314 66.7411 94.1005 68.6997 93.7981C71.265 93.4074 73.0988 92.916 75.2736 92.0366C76.948 91.3655 79.155 90.3293 80.2226 89.7466C81.281 89.1293 83.2661 87.8187 84.6217 86.7881C85.9865 85.7921 88.0655 83.8632 89.2338 82.5491C90.4022 81.2349 92.2198 78.7457 93.2423 77.0257C94.2994 75.2965 95.5517 72.7734 96.0762 71.4093C96.5661 70.0545 97.2969 67.5228 97.6503 65.7967C98.0036 64.0706 98.3279 61.1288 98.3927 59.2947C98.4136 57.4352 98.1911 54.5286 97.866 52.7619C97.541 50.9951 96.7716 48.1239 96.1166 46.3714C95.4962 44.6096 94.3673 42.0571 93.572 40.7501C92.8114 39.4337 91.2629 37.2532 90.1285 35.9258C89.0287 34.5891 87.146 32.6836 85.9819 31.6607C84.8178 30.6378 82.3654 28.9591 80.5575 27.8863C78.7243 26.8573 76.1224 25.5894 74.7767 25.1343C73.431 24.6792 71.0306 24.0247 69.4612 23.7036C67.9264 23.3733 65.1849 23.1068 63.3598 23.0768C61.5692 23.0375 58.593 23.2788 56.7567 23.6225C54.9204 23.9662 52.0486 24.7357 50.3557 25.3377V25.3377ZM66.3308 32.3657C67.6024 32.544 69.6518 32.996 70.8752 33.4097C72.0893 33.7889 74.234 34.7344 75.6285 35.5101C77.0577 36.2766 79.1152 37.7274 80.2793 38.7503C81.4434 39.7731 83.0005 41.4322 83.7907 42.444C84.581 43.4558 85.8409 45.5282 86.6226 47.0614C87.6217 49.1296 88.1705 50.7622 88.718 53.3592C89.1914 55.6795 89.4108 57.8824 89.3139 59.8735C89.2373 61.5254 88.8778 63.9205 88.577 65.1505C88.2415 66.3898 87.494 68.4439 86.9324 69.6696C86.3362 70.9046 85.2056 72.9131 84.4086 74.0907C83.577 75.2775 81.8372 77.2268 80.5095 78.3612C79.191 79.5302 76.9501 81.1317 75.5296 81.9201C73.8164 82.8612 71.8398 83.6504 69.6601 84.2344C67.8609 84.7165 65.201 85.1697 63.812 85.2453C62.4231 85.3208 59.647 85.0636 57.7292 84.6876C55.802 84.277 53.1477 83.5052 51.878 82.9185C50.6082 82.3318 48.5464 81.1416 47.3594 80.3103C46.1632 79.4443 44.089 77.5159 42.7698 76.0526C41.4852 74.5801 39.8743 72.305 39.2453 71.0647C38.6163 69.8243 37.6789 67.2947 37.1969 65.4958C36.6222 63.351 36.3082 61.2105 36.2667 59.2565C36.2395 57.6324 36.5063 54.8914 36.8597 53.1653C37.213 51.4392 37.997 48.9675 38.6185 47.6886C39.24 46.4098 40.4052 44.392 41.2368 43.2052C42.0245 41.993 43.7736 40.0783 45.0921 38.9094C46.4198 37.775 48.3586 36.2915 49.4263 35.7088C50.4846 35.0915 53.0654 34.0663 55.1136 33.4062C57.7592 32.6232 59.6554 32.2263 61.4528 32.1526C62.851 32.1116 65.0592 32.1873 66.3308 32.3657V32.3657Z" fill="white" stroke="black" stroke-width="2"/>
<path d="M22.0236 114.054C22.1274 114.026 25.439 108.393 29.4159 101.506C33.3928 94.6196 36.5313 89.0327 36.3583 89.0791C36.2199 89.1162 32.9084 94.7494 28.9661 101.627C25.0584 108.495 21.9198 114.082 22.0236 114.054Z" stroke="black" stroke-width="2"/>
<path d="M35.185 121.651C35.2888 121.623 38.6003 115.99 42.5772 109.103C46.5541 102.216 49.6926 96.6295 49.5196 96.6759C49.3812 96.713 46.0697 102.346 42.1274 109.224C38.2197 116.092 35.0812 121.679 35.185 121.651Z" stroke="black" stroke-width="2"/>
</svg>
